<?xml version="1.0" standalone="no"?>
<!DOCTYPE svg PUBLIC "-//W3C//DTD SVG 20010904//EN"
 "http://www.w3.org/TR/2001/REC-SVG-20010904/DTD/svg10.dtd">
<svg version="1.0" xmlns="http://www.w3.org/2000/svg"
 width="458.000000pt" height="58.000000pt" viewBox="0 0 458.000000 58.000000"
 preserveAspectRatio="xMidYMid meet">

<g transform="translate(0.000000,58.000000) scale(0.100000,-0.100000)"
fill="#000000" stroke="none">
<path d="M950 290 l0 -280 30 0 30 0 0 280 0 280 -30 0 -30 0 0 -280z"/>
<path d="M1520 541 l0 -31 100 0 c138 0 180 -23 180 -100 0 -22 -9 -41 -29
-61 -29 -29 -31 -29 -140 -29 l-112 0 3 -152 3 -153 25 0 25 0 3 122 3 123 76
0 c103 0 153 24 184 86 36 74 16 145 -55 198 -23 18 -45 21 -147 24 l-119 4 0
-31z"/>
<path d="M2050 540 l0 -30 186 0 185 0 -3 28 -3 27 -182 3 -183 2 0 -30z"/>
<path d="M2630 560 c0 -6 70 -132 156 -280 154 -266 157 -270 189 -270 27 0
34 5 39 26 9 35 5 509 -4 524 -4 7 -18 10 -31 8 l-24 -3 3 -195 c2 -107 -1
-206 -5 -219 -9 -21 -23 0 -137 198 -120 208 -130 221 -157 221 -16 0 -29 -5
-29 -10z"/>
<path d="M3423 556 c-155 -49 -240 -232 -175 -380 48 -107 153 -166 297 -166
l85 0 0 30 0 30 -77 0 c-98 0 -144 13 -189 52 -103 91 -103 250 2 336 45 37
101 52 193 52 l71 0 0 30 0 30 -82 -1 c-46 0 -102 -6 -125 -13z"/>
<path d="M3835 557 c-3 -7 -4 -131 -3 -277 l3 -265 28 -3 27 -3 0 280 0 281
-25 0 c-14 0 -28 -6 -30 -13z"/>
<path d="M4124 557 c-2 -7 -3 -100 -2 -207 l3 -195 28 -3 27 -3 0 210 0 211
-25 0 c-14 0 -28 -6 -31 -13z"/>
<path d="M622 548 c-20 -20 -14 -28 23 -28 19 0 35 4 35 8 0 12 -22 32 -35 32
-6 0 -16 -5 -23 -12z"/>
<path d="M330 255 l-245 -245 81 0 81 0 154 155 c85 85 160 157 168 160 22 9
26 -7 23 -89 l-4 -76 -72 0 -72 0 -47 -48 c-26 -26 -47 -51 -47 -55 0 -4 79
-7 175 -7 l175 0 0 225 0 225 -63 0 -62 0 -245 -245z m310 46 c0 -182 -6 -245
-21 -235 -10 6 -12 407 -3 417 19 19 24 -20 24 -182z m40 -26 c0 -137 -4 -215
-10 -215 -6 0 -10 78 -10 215 0 137 4 215 10 215 6 0 10 -78 10 -215z"/>
<path d="M2054 417 c-2 -7 -3 -100 -2 -207 l3 -195 180 0 180 0 3 27 3 27
-153 3 -153 3 0 90 0 90 75 5 c72 5 75 6 75 30 0 24 -3 25 -75 30 l-75 5 -3
53 c-3 48 -5 52 -28 52 -13 0 -27 -6 -30 -13z"/>
<path d="M2620 207 l0 -198 28 3 27 3 3 135 c3 152 2 160 -32 215 l-25 40 -1
-198z"/>
<path d="M4124 55 c-4 -8 -4 -22 0 -30 5 -13 32 -15 183 -13 l178 3 3 28 3 27
-181 0 c-151 0 -182 -2 -186 -15z"/>
<path d="M600 20 c0 -5 23 -10 50 -10 28 0 50 5 50 10 0 6 -22 10 -50 10 -27
0 -50 -4 -50 -10z"/>
</g>
</svg>
